<svg version="1.1" id="Layer_1" xmlns="http://www.w3.org/2000/svg" xmlns:xlink="http://www.w3.org/1999/xlink" x="0px" y="0px"
	 width="100%" viewBox="0 0 171 116" enable-background="new 0 0 171 116" xml:space="preserve">
<path fill="#393833" opacity="1.000000" stroke="none" 
	d="
M125.000000,117.000000 
	C83.333336,117.000000 42.166676,117.000000 1.000011,117.000000 
	C1.000007,78.333344 1.000007,39.666687 1.000004,1.000021 
	C57.999985,1.000014 114.999969,1.000014 171.999969,1.000007 
	C171.999969,39.666645 171.999969,78.333290 171.999985,116.999969 
	C156.500000,117.000000 141.000000,117.000000 125.000000,117.000000 
M32.899643,88.671661 
	C35.216042,92.609528 37.532444,96.547394 39.947971,100.653770 
	C47.090054,96.495445 53.661476,92.669365 60.584675,88.638481 
	C57.274830,82.920265 54.158314,77.536049 50.953304,71.998947 
	C47.911724,73.790527 45.393478,75.273842 42.604614,76.916565 
	C43.644779,78.492233 44.411346,79.653450 45.122269,80.730377 
	C46.782715,80.112091 48.094059,79.623802 49.447029,79.120010 
	C50.973328,81.837563 52.318130,84.231972 53.810921,86.889854 
	C49.602654,89.315331 45.747818,91.537094 41.615040,93.919060 
	C37.585178,86.958389 33.721485,80.284737 29.785603,73.486397 
	C35.441639,70.165947 40.712303,67.071739 46.206577,63.846260 
	C45.218243,62.296764 44.452518,61.096275 43.577190,59.723953 
	C36.653282,63.756027 29.973852,67.645737 23.047365,71.679314 
	C26.381975,77.428810 29.457794,82.732101 32.899643,88.671661 
M113.518585,46.977535 
	C116.193695,45.409241 118.868805,43.840946 121.792297,42.127033 
	C119.222000,37.706097 116.929260,33.762569 114.527908,29.632229 
	C107.382347,33.791794 100.696800,37.683582 93.803741,41.696159 
	C97.975929,48.839920 101.875404,55.516727 105.903091,62.413063 
	C112.953430,58.321682 119.538345,54.500393 126.539650,50.437473 
	C125.613335,48.939362 124.811661,47.642838 123.966370,46.275776 
	C118.323486,49.506989 113.151047,52.468819 107.626801,55.632099 
	C106.864738,54.102291 106.268471,52.905312 105.618729,51.600979 
	C108.302605,50.015800 110.585487,48.667458 113.518585,46.977535 
M135.262054,37.287552 
	C136.438034,39.236156 137.614014,41.184761 138.936401,43.375977 
	C140.530777,42.343967 141.728104,41.568962 142.965927,40.767746 
	C139.780090,35.194286 136.754074,29.900396 133.330841,23.911619 
	C143.165070,24.498310 142.184601,34.471249 147.842773,38.307121 
	C148.896072,37.524776 150.023010,36.687740 151.164505,35.839882 
	C148.544769,31.293959 146.188568,27.085733 143.711838,22.949686 
	C142.061340,20.193422 135.507019,17.795681 132.754730,19.244322 
	C127.975372,21.759888 123.401169,24.665260 118.586136,27.498270 
	C122.776131,34.681759 126.667953,41.354042 130.728241,48.315144 
	C132.353561,47.093288 133.458221,46.262852 134.615906,45.392559 
	C131.451065,39.873180 128.487106,34.704144 125.413795,29.344402 
	C126.834351,28.490808 127.923820,27.836155 129.298141,27.010345 
	C131.266373,30.371052 133.099106,33.500385 135.262054,37.287552 
M71.885559,54.440468 
	C65.508492,58.157764 59.131435,61.875061 52.561008,65.705070 
	C56.761467,72.902824 60.644802,79.557167 64.652664,86.424904 
	C71.805634,82.260788 78.470718,78.380699 85.307999,74.400360 
	C83.669701,71.518791 82.385582,69.015114 80.874809,66.656647 
	C78.168633,62.431992 75.326019,58.294727 71.885559,54.440468 
M74.346405,46.317478 
	C75.981735,46.163334 77.617065,46.009190 79.494667,45.832211 
	C84.058441,53.617741 88.724937,61.578503 93.515244,69.750481 
	C96.524773,68.013817 99.067390,66.546585 101.799629,64.969933 
	C100.845360,63.337543 100.145432,62.140247 99.404129,60.872185 
	C97.767372,61.656864 96.519409,62.255146 95.198334,62.888485 
	C90.314987,54.515980 85.658699,46.532753 80.900078,38.374088 
	C78.421715,39.780930 76.247955,40.710224 74.504234,42.157612 
	C73.825684,42.720848 74.116806,44.452290 74.346405,46.317478 
z"/>
<path fill="#F4F4F4" opacity="1.000000" stroke="none" 
	d="
M32.716629,88.353531 
	C29.457794,82.732101 26.381975,77.428810 23.047365,71.679314 
	C29.973852,67.645737 36.653282,63.756027 43.577190,59.723953 
	C44.452518,61.096275 45.218243,62.296764 46.206577,63.846260 
	C40.712303,67.071739 35.441639,70.165947 29.785603,73.486397 
	C33.721485,80.284737 37.585178,86.958389 41.615040,93.919060 
	C45.747818,91.537094 49.602654,89.315331 53.810921,86.889854 
	C52.318130,84.231972 50.973328,81.837563 49.447029,79.120010 
	C48.094059,79.623802 46.782715,80.112091 45.122269,80.730377 
	C44.411346,79.653450 43.644779,78.492233 42.604614,76.916565 
	C45.393478,75.273842 47.911724,73.790527 50.953304,71.998947 
	C54.158314,77.536049 57.274830,82.920265 60.584675,88.638481 
	C53.661476,92.669365 47.090054,96.495445 39.947971,100.653770 
	C37.532444,96.547394 35.216042,92.609528 32.716629,88.353531 
z"/>
<path fill="#F4F4F4" opacity="1.000000" stroke="none" 
	d="
M113.193481,47.148323 
	C110.585487,48.667458 108.302605,50.015800 105.618729,51.600979 
	C106.268471,52.905312 106.864738,54.102291 107.626801,55.632099 
	C113.151047,52.468819 118.323486,49.506989 123.966370,46.275776 
	C124.811661,47.642838 125.613335,48.939362 126.539650,50.437473 
	C119.538345,54.500393 112.953430,58.321682 105.903091,62.413063 
	C101.875404,55.516727 97.975929,48.839920 93.803741,41.696159 
	C100.696800,37.683582 107.382347,33.791794 114.527908,29.632229 
	C116.929260,33.762569 119.222000,37.706097 121.792297,42.127033 
	C118.868805,43.840946 116.193695,45.409241 113.193481,47.148323 
M108.443771,38.869186 
	C105.884369,40.351002 103.324974,41.832817 100.451981,43.496193 
	C101.469666,44.963345 102.261909,46.105488 103.115181,47.335606 
	C107.287537,44.904491 111.097939,42.684277 114.783714,40.536682 
	C113.796158,36.149788 111.662445,36.514698 108.443771,38.869186 
z"/>
<path fill="#F4F4F4" opacity="1.000000" stroke="none" 
	d="
M135.096954,36.958637 
	C133.099106,33.500385 131.266373,30.371052 129.298141,27.010345 
	C127.923820,27.836155 126.834351,28.490808 125.413795,29.344402 
	C128.487106,34.704144 131.451065,39.873180 134.615906,45.392559 
	C133.458221,46.262852 132.353561,47.093288 130.728241,48.315144 
	C126.667953,41.354042 122.776131,34.681759 118.586136,27.498270 
	C123.401169,24.665260 127.975372,21.759888 132.754730,19.244322 
	C135.507019,17.795681 142.061340,20.193422 143.711838,22.949686 
	C146.188568,27.085733 148.544769,31.293959 151.164505,35.839882 
	C150.023010,36.687740 148.896072,37.524776 147.842773,38.307121 
	C142.184601,34.471249 143.165070,24.498310 133.330841,23.911619 
	C136.754074,29.900396 139.780090,35.194286 142.965927,40.767746 
	C141.728104,41.568962 140.530777,42.343967 138.936401,43.375977 
	C137.614014,41.184761 136.438034,39.236156 135.096954,36.958637 
z"/>
<path fill="#F4F4F4" opacity="1.000000" stroke="none" 
	d="
M72.212997,54.280701 
	C75.326019,58.294727 78.168633,62.431992 80.874809,66.656647 
	C82.385582,69.015114 83.669701,71.518791 85.307999,74.400360 
	C78.470718,78.380699 71.805634,82.260788 64.652664,86.424904 
	C60.644802,79.557167 56.761467,72.902824 52.561008,65.705070 
	C59.131435,61.875061 65.508492,58.157764 72.212997,54.280701 
M76.612671,69.012802 
	C74.951126,66.214035 73.289581,63.415260 71.496864,60.395542 
	C67.264717,62.850464 63.430477,65.074570 59.265594,67.490479 
	C61.725994,71.691803 64.015213,75.600830 66.391411,79.658379 
	C70.040337,77.568748 73.126564,75.639503 76.360329,74.001534 
	C78.873337,72.728630 78.076553,71.302277 76.612671,69.012802 
z"/>
<path fill="#F4F4F3" opacity="1.000000" stroke="none" 
	d="
M74.156319,45.984539 
	C74.116806,44.452290 73.825684,42.720848 74.504234,42.157612 
	C76.247955,40.710224 78.421715,39.780930 80.900078,38.374088 
	C85.658699,46.532753 90.314987,54.515980 95.198334,62.888485 
	C96.519409,62.255146 97.767372,61.656864 99.404129,60.872185 
	C100.145432,62.140247 100.845360,63.337543 101.799629,64.969933 
	C99.067390,66.546585 96.524773,68.013817 93.515244,69.750481 
	C88.724937,61.578503 84.058441,53.617741 79.494667,45.832211 
	C77.617065,46.009190 75.981735,46.163334 74.156319,45.984539 
z"/>
<path fill="#43423E" opacity="1.000000" stroke="none" 
	d="
M108.756676,38.667656 
	C111.662445,36.514698 113.796158,36.149788 114.783714,40.536682 
	C111.097939,42.684277 107.287537,44.904491 103.115181,47.335606 
	C102.261909,46.105488 101.469666,44.963345 100.451981,43.496193 
	C103.324974,41.832817 105.884369,40.351002 108.756676,38.667656 
z"/>
<path fill="#3E3D38" opacity="1.000000" stroke="none" 
	d="
M76.792770,69.346992 
	C78.076553,71.302277 78.873337,72.728630 76.360329,74.001534 
	C73.126564,75.639503 70.040337,77.568748 66.391411,79.658379 
	C64.015213,75.600830 61.725994,71.691803 59.265594,67.490479 
	C63.430477,65.074570 67.264717,62.850464 71.496864,60.395542 
	C73.289581,63.415260 74.951126,66.214035 76.792770,69.346992 
z"/>
</svg>